<?xml version="1.0" standalone="no"?>
<!DOCTYPE svg PUBLIC "-//W3C//DTD SVG 20010904//EN"
 "http://www.w3.org/TR/2001/REC-SVG-20010904/DTD/svg10.dtd">
<svg version="1.0" xmlns="http://www.w3.org/2000/svg"
 width="300.000000pt" height="300.000000pt" viewBox="0 0 300.000000 300.000000"
 preserveAspectRatio="xMidYMid meet">
<metadata>
Created by potrace 1.10, written by Peter Selinger 2001-2011
</metadata>
<g transform="translate(0.000000,300.000000) scale(0.100000,-0.100000)"
fill="#000000" stroke="none">
<path d="M919 2380 l-30 -29 3 -473 3 -473 120 -235 120 -235 5 -233 5 -234
28 -24 c26 -22 36 -24 137 -24 103 0 110 1 140 26 l31 27 28 -27 c26 -25 32
-26 140 -26 106 0 113 1 136 25 l25 24 0 220 0 220 128 253 127 253 3 460 c2
359 0 465 -10 485 -29 54 -98 64 -136 19 -15 -17 -18 -55 -22 -322 l-5 -302
-39 -6 c-45 -7 -86 -47 -86 -82 0 -40 -47 -121 -125 -217 -101 -124 -115 -155
-160 -345 -6 -26 -11 -15 -34 75 -30 120 -51 160 -151 285 -80 100 -104 141
-114 199 -10 52 -45 86 -90 86 l-35 0 -3 306 -3 306 -28 24 c-38 32 -72 31
-108 -6z m101 -451 l0 -441 125 -247 125 -246 0 -182 0 -183 40 0 40 0 0 206
c0 290 -5 309 -122 455 -50 63 -101 137 -114 164 -30 66 -54 159 -54 213 l0
43 42 -3 c42 -3 43 -4 46 -43 4 -58 42 -128 126 -231 148 -181 160 -231 160
-659 l1 -310 -125 0 -125 0 -3 235 -2 235 -123 235 -122 235 -3 483 -3 482 46
0 45 0 0 -441z m1008 -31 l2 -467 -130 -255 -130 -254 0 -231 0 -231 -125 0
-125 0 0 294 c0 433 14 495 160 677 93 117 120 164 129 228 6 46 6 46 49 49
39 3 42 2 42 -23 0 -58 -34 -184 -66 -245 -19 -36 -67 -104 -108 -151 -40 -48
-81 -106 -90 -129 -25 -63 -35 -165 -36 -357 l0 -173 45 0 45 0 0 185 0 186
125 249 125 248 0 437 0 436 43 -3 42 -3 3 -467z m-795 -676 c26 -34 51 -78
57 -104 22 -87 5 -80 -46 19 -49 93 -70 143 -61 143 2 0 25 -26 50 -58z m485
-74 c-42 -82 -53 -98 -56 -78 -2 13 1 41 7 61 13 42 93 149 98 132 2 -6 -20
-58 -49 -115z"/>
</g>
</svg>
